# xmcd
# 
# Track frame offsets:
#     182
#     52670
#     86645
#     103355
#     118210
#     135522
#     150582
# 
# Disc length: 2240
# 
# Revision: 11
# Processed by: cddbd v1.5.2PL0 Copyright (c) Steve Scherf et al.
# Submitted via: BonkEnc v1.0.15
# 
DISCID=5508be07
DTITLE=Jean Michel Jarre - Zoolook
DYEAR=1984
DGENRE=Electronic
TTITLE0=Ethnicolor
TTITLE1=Diva
TTITLE2=Zoolookologie (Remix)
TTITLE3=Woolloomooloo
TTITLE4=Zoolook (Remix)
TTITLE5=Blah Blah Cafe
TTITLE6=Ethnicolor II
EXTD=
EXTT0=
EXTT1=
EXTT2=
EXTT3=
EXTT4=
EXTT5=
EXTT6=
PLAYORDER=
